<svg xmlns="http://www.w3.org/2000/svg" width="2134" height="150" viewBox="0 0 2134 150" version="1.1">
	<path d="M 1923.475 17.250 C 1923.862 19.038, 1924.401 25.535, 1924.673 31.689 L 1925.169 42.877 1921.335 43.905 C 1919.226 44.470, 1914.900 45.236, 1911.722 45.607 C 1905.215 46.367, 1903.919 47.351, 1907.148 49.079 C 1908.632 49.873, 1911.905 50.045, 1917.176 49.606 L 1925 48.953 1925 53.438 C 1925 58.325, 1925.378 58.068, 1914.500 60.583 C 1907.620 62.174, 1909.950 63.816, 1919.250 63.930 L 1925 64 1925 67.953 C 1925 71.669, 1924.775 71.968, 1921.250 72.946 C 1919.188 73.518, 1914.675 74.278, 1911.222 74.634 C 1907.769 74.990, 1904.717 75.649, 1904.439 76.098 C 1904.162 76.547, 1905.373 77.659, 1907.132 78.568 C 1909.587 79.838, 1911.698 80.066, 1916.232 79.553 C 1919.479 79.186, 1922.735 78.655, 1923.469 78.373 C 1924.543 77.961, 1924.871 81.368, 1925.152 95.848 C 1925.343 105.741, 1925.862 114.197, 1926.304 114.639 C 1928.653 116.984, 1930.660 107.528, 1931.577 89.795 L 1932.286 76.090 1936.821 74.545 C 1939.316 73.695, 1943.249 73, 1945.562 73 C 1949.077 73, 1949.866 73.369, 1950.370 75.250 C 1951.883 80.897, 1950.304 90.553, 1947.391 93.466 C 1946.533 94.324, 1944.126 95, 1941.929 95 C 1939.768 95, 1938 95.375, 1938 95.833 C 1938 96.291, 1939.796 98.109, 1941.991 99.872 C 1944.186 101.636, 1946.260 104.187, 1946.599 105.540 C 1947.387 108.677, 1947.862 108.632, 1951.782 105.052 C 1956.083 101.123, 1957.012 98.458, 1958.534 85.677 C 1959.363 78.714, 1960.389 74.227, 1961.411 73.098 C 1963.563 70.720, 1963.531 70.640, 1959.196 67.636 C 1954.400 64.312, 1953.208 64.337, 1942 68 C 1936.951 69.650, 1932.635 71, 1932.410 71 C 1932.184 71, 1932 69.239, 1932 67.087 L 1932 63.173 1938.700 61.009 C 1946.435 58.510, 1951 56.316, 1951 55.097 C 1951 54.628, 1950.384 53.734, 1949.632 53.109 C 1948.368 52.060, 1943.637 52.813, 1933.750 55.635 C 1932.269 56.058, 1932 55.444, 1932 51.639 L 1932 47.144 1941.750 44.928 C 1955.727 41.752, 1957.756 40.384, 1952.020 38.008 C 1949.590 37.002, 1947.790 37.058, 1942.270 38.312 C 1938.547 39.158, 1934.654 40.180, 1933.620 40.582 C 1931.843 41.274, 1931.770 40.826, 1932.279 32.407 C 1932.575 27.508, 1933.128 22.518, 1933.508 21.317 C 1934.101 19.441, 1933.485 18.773, 1929.132 16.567 C 1926.346 15.155, 1923.775 14, 1923.420 14 C 1923.064 14, 1923.089 15.462, 1923.475 17.250 M 2075.639 14.775 C 2075.348 15.247, 2075.740 17.402, 2076.511 19.566 C 2077.330 21.866, 2077.930 27.534, 2077.956 33.211 L 2078 42.923 2074.250 43.928 C 2072.188 44.481, 2067.900 45.236, 2064.722 45.607 C 2058.210 46.368, 2056.919 47.351, 2060.157 49.084 C 2061.629 49.872, 2064.985 50.066, 2070.185 49.665 L 2078 49.063 2078 53.493 C 2078 58.316, 2078.362 58.071, 2067.500 60.583 C 2060.620 62.174, 2062.950 63.816, 2072.250 63.930 L 2078 64 2078 67.953 C 2078 71.669, 2077.775 71.968, 2074.250 72.946 C 2072.188 73.518, 2067.675 74.278, 2064.222 74.634 C 2060.769 74.990, 2057.717 75.649, 2057.439 76.098 C 2057.162 76.547, 2058.373 77.659, 2060.132 78.568 C 2062.587 79.838, 2064.698 80.066, 2069.232 79.553 C 2072.479 79.186, 2075.751 78.649, 2076.503 78.360 C 2077.623 77.931, 2077.929 81.106, 2078.186 95.837 C 2078.490 113.288, 2079.084 117.043, 2081.051 113.971 C 2083.149 110.695, 2084.071 104.794, 2084.674 90.792 L 2085.308 76.083 2089.832 74.542 C 2092.320 73.694, 2096.249 73, 2098.562 73 C 2102.077 73, 2102.866 73.369, 2103.370 75.250 C 2104.883 80.897, 2103.304 90.553, 2100.391 93.466 C 2099.533 94.324, 2097.126 95, 2094.929 95 C 2092.768 95, 2091 95.375, 2091 95.833 C 2091 96.291, 2092.796 98.109, 2094.991 99.872 C 2097.186 101.636, 2099.260 104.187, 2099.599 105.540 C 2100.387 108.677, 2100.862 108.632, 2104.782 105.052 C 2109.083 101.123, 2110.012 98.458, 2111.534 85.677 C 2112.363 78.714, 2113.389 74.227, 2114.411 73.098 C 2116.563 70.720, 2116.531 70.640, 2112.196 67.636 C 2107.400 64.312, 2106.208 64.337, 2095 68 C 2089.951 69.650, 2085.635 71, 2085.410 71 C 2085.184 71, 2085 69.239, 2085 67.087 L 2085 63.173 2091.700 61.009 C 2099.435 58.510, 2104 56.316, 2104 55.097 C 2104 54.628, 2103.384 53.734, 2102.632 53.109 C 2101.368 52.060, 2096.637 52.813, 2086.750 55.635 C 2085.269 56.058, 2085 55.445, 2085 51.649 L 2085 47.164 2094.750 44.961 C 2108.661 41.818, 2110.770 40.390, 2105.020 38.008 C 2102.590 37.002, 2100.790 37.058, 2095.270 38.312 C 2091.547 39.158, 2087.644 40.183, 2086.599 40.590 C 2084.791 41.294, 2084.731 40.915, 2085.381 32.915 C 2085.757 28.287, 2086.163 23.183, 2086.282 21.573 C 2086.455 19.255, 2085.877 18.290, 2083.500 16.928 C 2079.444 14.605, 2076.280 13.738, 2075.639 14.775 M 361.750 24.518 C 354.540 28.352, 347.083 30.134, 341.250 29.416 C 338.363 29.060, 336 29.106, 336 29.517 C 336 29.928, 336.881 31.689, 337.957 33.431 C 339.034 35.173, 340.407 39.951, 341.008 44.049 C 343.074 58.124, 344.008 62.364, 345.569 64.746 C 346.887 66.757, 347.379 66.930, 348.686 65.845 C 350.240 64.556, 350.147 58.832, 348.437 50.394 C 347.851 47.504, 348.036 47.243, 351.099 46.630 C 358.813 45.087, 362 43.859, 362 42.430 C 362 39.809, 358.992 39.662, 353.928 42.034 C 351.221 43.302, 348.837 44.150, 348.631 43.920 C 348.425 43.689, 347.950 41.388, 347.575 38.806 L 346.894 34.113 353.342 32.122 C 364.680 28.619, 366.653 28.483, 368.055 31.103 C 369.511 33.824, 368.625 54.963, 366.921 58.147 C 366.154 59.581, 366.190 60.524, 367.053 61.564 C 370.039 65.162, 371.445 62.194, 376.555 41.500 C 377.506 37.650, 379.088 33.066, 380.071 31.313 C 381.415 28.917, 381.565 27.896, 380.679 27.196 C 378.237 25.268, 374.885 23.918, 370.514 23.102 C 366.717 22.392, 365.324 22.617, 361.750 24.518 M 514.750 24.518 C 507.540 28.352, 500.083 30.134, 494.250 29.416 C 491.363 29.060, 489 29.106, 489 29.517 C 489 29.928, 489.881 31.689, 490.957 33.431 C 492.034 35.173, 493.407 39.951, 494.008 44.049 C 496.078 58.149, 497.009 62.365, 498.587 64.774 C 500.164 67.180, 500.178 67.182, 502.335 65.234 C 503.526 64.159, 507.593 62.522, 511.374 61.597 C 517.574 60.080, 518.416 60.067, 519.953 61.458 C 520.891 62.306, 522.119 63, 522.683 63 C 523.690 63, 526.134 55.355, 529.555 41.500 C 530.506 37.650, 532.088 33.066, 533.071 31.313 C 534.415 28.917, 534.565 27.896, 533.679 27.196 C 531.237 25.268, 527.885 23.918, 523.514 23.102 C 519.717 22.392, 518.324 22.617, 514.750 24.518 M 667.750 24.518 C 660.540 28.352, 653.083 30.134, 647.250 29.416 C 644.362 29.060, 642 29.106, 642 29.517 C 642 29.928, 642.881 31.689, 643.957 33.431 C 645.034 35.173, 646.407 39.951, 647.008 44.049 C 649.076 58.140, 650.009 62.364, 651.581 64.764 C 653.061 67.023, 653.267 67.068, 654.993 65.506 C 656.003 64.592, 660.116 62.999, 664.134 61.966 C 670.546 60.316, 671.635 60.265, 673.048 61.543 C 673.933 62.345, 675.119 63, 675.683 63 C 676.690 63, 679.134 55.355, 682.555 41.500 C 683.506 37.650, 685.088 33.066, 686.071 31.313 C 687.415 28.917, 687.565 27.896, 686.679 27.196 C 684.237 25.268, 680.885 23.918, 676.514 23.102 C 672.717 22.392, 671.324 22.617, 667.750 24.518 M 820.750 24.518 C 813.540 28.352, 806.083 30.134, 800.250 29.416 C 797.362 29.060, 795 29.106, 795 29.517 C 795 29.928, 795.881 31.689, 796.957 33.431 C 798.034 35.173, 799.407 39.951, 800.008 44.049 C 802.076 58.140, 803.009 62.364, 804.581 64.764 C 806.061 67.023, 806.267 67.068, 807.993 65.506 C 809.003 64.592, 813.116 62.999, 817.134 61.966 C 823.546 60.316, 824.635 60.265, 826.048 61.543 C 826.933 62.345, 828.119 63, 828.683 63 C 829.690 63, 832.134 55.355, 835.555 41.500 C 836.506 37.650, 838.088 33.066, 839.071 31.313 C 840.415 28.917, 840.565 27.896, 839.679 27.196 C 837.237 25.268, 833.885 23.918, 829.514 23.102 C 825.717 22.392, 824.324 22.617, 820.750 24.518 M 970.750 24.518 C 963.540 28.352, 956.083 30.134, 950.250 29.416 C 947.362 29.060, 945 29.106, 945 29.517 C 945 29.928, 945.881 31.689, 946.957 33.431 C 948.034 35.173, 949.407 39.951, 950.008 44.049 C 952.076 58.140, 953.009 62.364, 954.581 64.764 C 956.061 67.023, 956.267 67.068, 957.993 65.506 C 959.003 64.592, 963.116 62.999, 967.134 61.966 C 973.546 60.316, 974.635 60.265, 976.048 61.543 C 979.577 64.737, 980.095 63.697, 985.038 43.500 C 986.249 38.550, 988.054 33.066, 989.049 31.313 C 990.408 28.918, 990.565 27.896, 989.679 27.196 C 987.237 25.268, 983.885 23.918, 979.514 23.102 C 975.717 22.392, 974.324 22.617, 970.750 24.518 M 1123.750 24.518 C 1116.540 28.352, 1109.083 30.134, 1103.250 29.416 C 1100.362 29.060, 1098 29.106, 1098 29.517 C 1098 29.928, 1098.881 31.689, 1099.957 33.431 C 1101.034 35.173, 1102.407 39.951, 1103.008 44.049 C 1105.076 58.140, 1106.009 62.364, 1107.581 64.764 C 1109.061 67.023, 1109.267 67.068, 1110.993 65.506 C 1112.003 64.592, 1116.116 62.999, 1120.134 61.966 C 1126.546 60.316, 1127.635 60.265, 1129.048 61.543 C 1129.933 62.345, 1131.119 63, 1131.683 63 C 1132.690 63, 1135.134 55.355, 1138.555 41.500 C 1139.506 37.650, 1141.088 33.066, 1142.071 31.313 C 1143.415 28.917, 1143.565 27.896, 1142.679 27.196 C 1140.237 25.268, 1136.885 23.918, 1132.514 23.102 C 1128.717 22.392, 1127.324 22.617, 1123.750 24.518 M 1276.750 24.518 C 1269.540 28.352, 1262.083 30.134, 1256.250 29.416 C 1253.362 29.060, 1251 29.106, 1251 29.517 C 1251 29.928, 1251.881 31.689, 1252.957 33.431 C 1254.034 35.173, 1255.407 39.951, 1256.008 44.049 C 1258.076 58.140, 1259.009 62.364, 1260.581 64.764 C 1262.061 67.023, 1262.267 67.068, 1263.993 65.506 C 1265.003 64.592, 1269.116 62.999, 1273.134 61.966 C 1279.546 60.316, 1280.635 60.265, 1282.048 61.543 C 1282.933 62.345, 1284.119 63, 1284.683 63 C 1285.690 63, 1288.134 55.355, 1291.555 41.500 C 1292.506 37.650, 1294.088 33.066, 1295.071 31.313 C 1296.415 28.917, 1296.565 27.896, 1295.679 27.196 C 1293.237 25.268, 1289.885 23.918, 1285.514 23.102 C 1281.717 22.392, 1280.324 22.617, 1276.750 24.518 M 1429.750 24.518 C 1422.540 28.352, 1415.083 30.134, 1409.250 29.416 C 1406.362 29.060, 1404 29.106, 1404 29.517 C 1404 29.928, 1404.881 31.689, 1405.957 33.431 C 1407.034 35.173, 1408.407 39.951, 1409.008 44.049 C 1411.076 58.140, 1412.009 62.364, 1413.581 64.764 C 1415.061 67.023, 1415.267 67.068, 1416.993 65.506 C 1418.003 64.592, 1422.116 62.999, 1426.134 61.966 C 1432.546 60.316, 1433.635 60.265, 1435.048 61.543 C 1435.933 62.345, 1437.119 63, 1437.683 63 C 1438.690 63, 1441.134 55.355, 1444.555 41.500 C 1445.506 37.650, 1447.088 33.066, 1448.071 31.313 C 1449.415 28.917, 1449.565 27.896, 1448.679 27.196 C 1446.237 25.268, 1442.885 23.918, 1438.514 23.102 C 1434.717 22.392, 1433.324 22.617, 1429.750 24.518 M 1582.750 24.518 C 1575.540 28.352, 1568.083 30.134, 1562.250 29.416 C 1559.362 29.060, 1557 29.106, 1557 29.517 C 1557 29.928, 1557.881 31.689, 1558.957 33.431 C 1560.034 35.173, 1561.407 39.951, 1562.008 44.049 C 1564.076 58.140, 1565.009 62.364, 1566.581 64.764 C 1568.061 67.023, 1568.267 67.068, 1569.993 65.506 C 1571.003 64.592, 1575.116 62.999, 1579.134 61.966 C 1585.546 60.316, 1586.635 60.265, 1588.048 61.543 C 1588.933 62.345, 1590.119 63, 1590.683 63 C 1591.690 63, 1594.134 55.355, 1597.555 41.500 C 1598.506 37.650, 1600.088 33.066, 1601.071 31.313 C 1602.415 28.917, 1602.565 27.896, 1601.679 27.196 C 1599.237 25.268, 1595.885 23.918, 1591.514 23.102 C 1587.717 22.392, 1586.324 22.617, 1582.750 24.518 M 1735.750 24.518 C 1728.540 28.352, 1721.083 30.134, 1715.250 29.416 C 1712.362 29.060, 1710 29.106, 1710 29.517 C 1710 29.928, 1710.881 31.689, 1711.957 33.431 C 1713.034 35.173, 1714.407 39.951, 1715.008 44.049 C 1717.076 58.140, 1718.009 62.364, 1719.581 64.764 C 1721.061 67.023, 1721.267 67.068, 1722.993 65.506 C 1724.003 64.592, 1728.116 62.999, 1732.134 61.966 C 1738.546 60.316, 1739.635 60.265, 1741.048 61.543 C 1741.933 62.345, 1743.119 63, 1743.683 63 C 1744.690 63, 1747.134 55.355, 1750.555 41.500 C 1751.506 37.650, 1753.088 33.066, 1754.071 31.313 C 1755.415 28.917, 1755.565 27.896, 1754.679 27.196 C 1752.237 25.268, 1748.885 23.918, 1744.514 23.102 C 1740.717 22.392, 1739.324 22.617, 1735.750 24.518 M 1885.750 24.518 C 1878.540 28.352, 1871.083 30.134, 1865.250 29.416 C 1862.362 29.060, 1860 29.106, 1860 29.517 C 1860 29.928, 1860.881 31.689, 1861.957 33.431 C 1863.034 35.173, 1864.407 39.951, 1865.008 44.049 C 1867.076 58.140, 1868.009 62.364, 1869.581 64.764 C 1871.061 67.023, 1871.267 67.068, 1872.993 65.506 C 1874.003 64.592, 1878.116 62.999, 1882.134 61.966 C 1888.546 60.316, 1889.635 60.265, 1891.048 61.543 C 1891.933 62.345, 1893.119 63, 1893.683 63 C 1894.690 63, 1897.134 55.355, 1900.555 41.500 C 1901.506 37.650, 1903.088 33.066, 1904.071 31.313 C 1905.415 28.917, 1905.565 27.896, 1904.679 27.196 C 1902.237 25.268, 1898.885 23.918, 1894.514 23.102 C 1890.717 22.392, 1889.324 22.617, 1885.750 24.518 M 2038.750 24.518 C 2031.540 28.352, 2024.083 30.134, 2018.250 29.416 C 2015.362 29.060, 2013 29.106, 2013 29.517 C 2013 29.928, 2013.881 31.689, 2014.957 33.431 C 2016.034 35.173, 2017.407 39.951, 2018.008 44.049 C 2020.076 58.140, 2021.009 62.364, 2022.581 64.764 C 2024.061 67.023, 2024.267 67.068, 2025.993 65.506 C 2027.003 64.592, 2031.116 62.999, 2035.134 61.966 C 2041.546 60.316, 2042.635 60.265, 2044.048 61.543 C 2047.577 64.737, 2048.095 63.697, 2053.038 43.500 C 2054.249 38.550, 2056.054 33.066, 2057.049 31.313 C 2058.408 28.918, 2058.565 27.896, 2057.679 27.196 C 2055.237 25.268, 2051.885 23.918, 2047.514 23.102 C 2043.717 22.392, 2042.324 22.617, 2038.750 24.518 M 205 26.332 C 199.253 29.133, 197.602 29.481, 190.750 29.338 C 186.488 29.248, 183 29.420, 183 29.720 C 183 30.019, 183.881 31.689, 184.957 33.431 C 186.034 35.173, 187.407 39.951, 188.008 44.049 C 190.080 58.168, 191.010 62.366, 192.601 64.795 C 194.058 67.018, 194.336 67.092, 195.781 65.647 C 197.176 64.253, 197.223 62.955, 196.176 54.782 C 195.523 49.677, 194.878 42.829, 194.744 39.564 L 194.500 33.627 202 31.319 C 212.055 28.225, 214.780 28.275, 215.607 31.569 C 216.576 35.430, 215.521 55.195, 214.217 57.612 C 213.332 59.252, 213.389 60.145, 214.471 61.612 C 216.699 64.629, 217.844 62.435, 221.637 47.873 C 223.553 40.518, 225.768 33.193, 226.560 31.596 C 227.352 29.999, 228 28.367, 228 27.970 C 228 26.642, 218.174 22.999, 214.815 23.082 C 212.992 23.126, 208.575 24.589, 205 26.332 M 30.773 29.561 C 30.380 29.953, 31.005 31.603, 32.162 33.227 C 33.664 35.337, 34.768 39.677, 36.030 48.442 C 37.001 55.186, 38.557 62.176, 39.488 63.976 C 41.020 66.939, 41.327 67.101, 42.738 65.691 C 44.075 64.354, 44.141 63.094, 43.203 56.816 C 42.602 52.792, 41.822 46.015, 41.470 41.756 C 41.060 36.788, 40.234 33.294, 39.165 32.009 C 37.423 29.914, 32.001 28.332, 30.773 29.561 M 515.500 29.492 C 514.950 29.675, 511.213 30.785, 507.196 31.958 L 499.891 34.091 500.574 38.795 C 500.949 41.383, 501.404 43.668, 501.585 43.873 C 501.766 44.079, 503.747 43.291, 505.988 42.123 C 510.708 39.663, 513.293 39.444, 514.890 41.367 C 516.562 43.382, 514.591 44.598, 507.179 46.126 L 500.858 47.429 501.463 50.965 C 503.030 60.115, 503.076 60.218, 505.349 59.542 C 506.532 59.190, 510.482 58.169, 514.126 57.272 L 520.753 55.641 521.376 49.674 C 522.303 40.812, 522.134 33.118, 520.965 30.934 C 520.016 29.161, 518.047 28.642, 515.500 29.492 M 668.500 29.492 C 667.950 29.675, 664.213 30.785, 660.196 31.958 L 652.891 34.091 653.574 38.795 C 653.949 41.383, 654.404 43.668, 654.585 43.873 C 654.766 44.079, 656.747 43.291, 658.988 42.123 C 663.708 39.663, 666.293 39.444, 667.890 41.367 C 669.558 43.377, 667.593 44.597, 660.250 46.111 C 656.813 46.820, 654 47.699, 654 48.064 C 654 49.250, 656.006 59.339, 656.300 59.633 C 656.457 59.791, 659.419 59.037, 662.882 57.960 C 666.345 56.882, 670.199 56, 671.447 56 C 673.489 56, 673.779 55.387, 674.358 49.853 C 675.301 40.823, 675.142 33.133, 673.965 30.934 C 673.016 29.161, 671.047 28.642, 668.500 29.492 M 821.500 29.492 C 820.950 29.675, 817.213 30.785, 813.196 31.958 L 805.891 34.091 806.574 38.795 C 806.949 41.383, 807.404 43.668, 807.585 43.873 C 807.766 44.079, 809.747 43.291, 811.988 42.123 C 816.708 39.663, 819.293 39.444, 820.890 41.367 C 822.558 43.377, 820.593 44.597, 813.250 46.111 C 809.813 46.820, 807 47.699, 807 48.064 C 807 49.250, 809.006 59.339, 809.300 59.633 C 809.457 59.791, 812.419 59.037, 815.882 57.960 C 819.345 56.882, 823.199 56, 824.447 56 C 826.489 56, 826.779 55.387, 827.358 49.853 C 828.301 40.823, 828.142 33.133, 826.965 30.934 C 826.016 29.161, 824.047 28.642, 821.500 29.492 M 971.500 29.492 C 970.950 29.675, 967.213 30.785, 963.196 31.958 L 955.891 34.091 956.574 38.795 C 956.949 41.383, 957.404 43.668, 957.585 43.873 C 957.766 44.079, 959.747 43.291, 961.988 42.123 C 966.708 39.663, 969.293 39.444, 970.890 41.367 C 972.558 43.377, 970.593 44.597, 963.250 46.111 C 959.813 46.820, 957 47.699, 957 48.064 C 957 49.250, 959.006 59.339, 959.300 59.633 C 959.457 59.791, 962.419 59.037, 965.882 57.960 C 969.345 56.882, 973.199 56, 974.447 56 C 976.489 56, 976.779 55.387, 977.358 49.853 C 978.301 40.823, 978.142 33.133, 976.965 30.934 C 976.016 29.161, 974.047 28.642, 971.500 29.492 M 1124.500 29.492 C 1123.950 29.675, 1120.190 30.792, 1116.146 31.973 L 1108.791 34.121 1109.489 38.811 C 1109.873 41.390, 1110.351 43.668, 1110.550 43.873 C 1110.750 44.079, 1112.747 43.291, 1114.988 42.123 C 1119.708 39.663, 1122.293 39.444, 1123.890 41.367 C 1125.558 43.377, 1123.593 44.597, 1116.250 46.111 C 1112.813 46.820, 1110 47.699, 1110 48.064 C 1110 49.250, 1112.006 59.339, 1112.300 59.633 C 1112.457 59.791, 1115.419 59.037, 1118.882 57.960 C 1122.345 56.882, 1126.199 56, 1127.447 56 C 1129.489 56, 1129.779 55.387, 1130.358 49.853 C 1131.301 40.823, 1131.142 33.133, 1129.965 30.934 C 1129.016 29.161, 1127.047 28.642, 1124.500 29.492 M 1277.500 29.492 C 1276.950 29.675, 1273.213 30.785, 1269.196 31.958 L 1261.891 34.091 1262.574 38.795 C 1262.949 41.383, 1263.404 43.668, 1263.585 43.873 C 1263.766 44.079, 1265.747 43.291, 1267.988 42.123 C 1272.708 39.663, 1275.293 39.444, 1276.890 41.367 C 1278.558 43.377, 1276.593 44.597, 1269.250 46.111 C 1265.813 46.820, 1263 47.699, 1263 48.064 C 1263 49.250, 1265.006 59.339, 1265.300 59.633 C 1265.457 59.791, 1268.419 59.037, 1271.882 57.960 C 1275.345 56.882, 1279.199 56, 1280.447 56 C 1282.489 56, 1282.779 55.387, 1283.358 49.853 C 1284.301 40.823, 1284.142 33.133, 1282.965 30.934 C 1282.016 29.161, 1280.047 28.642, 1277.500 29.492 M 1430.500 29.492 C 1429.950 29.675, 1426.213 30.785, 1422.196 31.958 L 1414.891 34.091 1415.574 38.795 C 1415.949 41.383, 1416.404 43.668, 1416.585 43.873 C 1416.766 44.079, 1418.747 43.291, 1420.988 42.123 C 1425.708 39.663, 1428.293 39.444, 1429.890 41.367 C 1431.558 43.377, 1429.593 44.597, 1422.250 46.111 C 1418.813 46.820, 1416 47.699, 1416 48.064 C 1416 49.250, 1418.006 59.339, 1418.300 59.633 C 1418.457 59.791, 1421.419 59.037, 1424.882 57.960 C 1428.345 56.882, 1432.199 56, 1433.447 56 C 1435.489 56, 1435.779 55.387, 1436.358 49.853 C 1437.301 40.823, 1437.142 33.133, 1435.965 30.934 C 1435.016 29.161, 1433.047 28.642, 1430.500 29.492 M 1583.500 29.492 C 1582.950 29.675, 1579.213 30.785, 1575.196 31.958 L 1567.891 34.091 1568.574 38.795 C 1568.949 41.383, 1569.404 43.668, 1569.585 43.873 C 1569.766 44.079, 1571.747 43.291, 1573.988 42.123 C 1578.708 39.663, 1581.293 39.444, 1582.890 41.367 C 1584.558 43.377, 1582.593 44.597, 1575.250 46.111 C 1571.813 46.820, 1569 47.699, 1569 48.064 C 1569 49.250, 1571.006 59.339, 1571.300 59.633 C 1571.457 59.791, 1574.419 59.037, 1577.882 57.960 C 1581.345 56.882, 1585.199 56, 1586.447 56 C 1588.489 56, 1588.779 55.387, 1589.358 49.853 C 1590.301 40.823, 1590.142 33.133, 1588.965 30.934 C 1588.016 29.161, 1586.047 28.642, 1583.500 29.492 M 1736.500 29.492 C 1735.950 29.675, 1732.213 30.785, 1728.196 31.958 L 1720.891 34.091 1721.574 38.795 C 1721.949 41.383, 1722.404 43.668, 1722.585 43.873 C 1722.766 44.079, 1724.747 43.291, 1726.988 42.123 C 1731.708 39.663, 1734.293 39.444, 1735.890 41.367 C 1737.558 43.377, 1735.593 44.597, 1728.250 46.111 C 1724.813 46.820, 1722 47.699, 1722 48.064 C 1722 49.250, 1724.006 59.339, 1724.300 59.633 C 1724.457 59.791, 1727.419 59.037, 1730.882 57.960 C 1734.345 56.882, 1738.199 56, 1739.447 56 C 1741.489 56, 1741.779 55.387, 1742.358 49.853 C 1743.301 40.823, 1743.142 33.133, 1741.965 30.934 C 1741.016 29.161, 1739.047 28.642, 1736.500 29.492 M 1886.500 29.492 C 1885.950 29.675, 1882.213 30.785, 1878.196 31.958 L 1870.891 34.091 1871.574 38.795 C 1871.949 41.383, 1872.404 43.668, 1872.585 43.873 C 1872.766 44.079, 1874.747 43.291, 1876.988 42.123 C 1881.708 39.663, 1884.293 39.444, 1885.890 41.367 C 1887.558 43.377, 1885.593 44.597, 1878.250 46.111 C 1874.813 46.820, 1872 47.699, 1872 48.064 C 1872 49.250, 1874.006 59.339, 1874.300 59.633 C 1874.457 59.791, 1877.419 59.037, 1880.882 57.960 C 1884.345 56.882, 1888.199 56, 1889.447 56 C 1891.489 56, 1891.779 55.387, 1892.358 49.853 C 1893.301 40.823, 1893.142 33.133, 1891.965 30.934 C 1891.016 29.161, 1889.047 28.642, 1886.500 29.492 M 2039.500 29.492 C 2038.950 29.675, 2035.213 30.785, 2031.196 31.958 L 2023.891 34.091 2024.574 38.795 C 2024.949 41.383, 2025.404 43.668, 2025.585 43.873 C 2025.766 44.079, 2027.747 43.291, 2029.988 42.123 C 2034.708 39.663, 2037.293 39.444, 2038.890 41.367 C 2040.558 43.377, 2038.593 44.597, 2031.250 46.111 C 2027.813 46.820, 2025 47.699, 2025 48.064 C 2025 49.250, 2027.006 59.339, 2027.300 59.633 C 2027.457 59.791, 2030.419 59.037, 2033.882 57.960 C 2037.345 56.882, 2041.199 56, 2042.447 56 C 2044.489 56, 2044.779 55.387, 2045.358 49.853 C 2046.301 40.823, 2046.142 33.133, 2044.965 30.934 C 2044.016 29.161, 2042.047 28.642, 2039.500 29.492 M 1632.500 40.074 C 1618.105 43.975, 1609.134 45.961, 1605.809 45.983 C 1602.251 46.006, 1601.394 47.606, 1604.151 49.081 C 1607.282 50.756, 1618.855 49.688, 1632.320 46.481 C 1652.474 41.680, 1654.754 40.576, 1649.479 38.172 C 1645.962 36.570, 1645.056 36.671, 1632.500 40.074 M 1785.500 40.074 C 1771.105 43.975, 1762.134 45.961, 1758.809 45.983 C 1755.250 46.006, 1754.395 47.606, 1757.152 49.081 C 1760.222 50.725, 1771.937 49.624, 1785.500 46.418 C 1805.404 41.713, 1807.749 40.574, 1802.479 38.172 C 1798.962 36.570, 1798.056 36.671, 1785.500 40.074 M 1484.500 38.974 C 1482.850 39.397, 1476.164 41.150, 1469.642 42.871 C 1463.120 44.592, 1456.284 46, 1454.451 46 C 1450.208 46, 1449.137 47.650, 1452.412 49.142 C 1455.698 50.639, 1466.048 49.322, 1483.839 45.142 C 1499.030 41.573, 1499.546 41.363, 1497.926 39.411 C 1496.660 37.885, 1489.640 37.656, 1484.500 38.974 M 1626.819 56.903 C 1617.095 59.431, 1608.836 61.808, 1608.467 62.186 C 1607.247 63.431, 1615.116 64.276, 1621.987 63.638 C 1631.253 62.777, 1648 57.216, 1648 55 C 1648 52.115, 1643.776 52.494, 1626.819 56.903 M 1779.500 56.617 C 1758.724 62.029, 1758.898 61.967, 1761.500 63.037 C 1767.620 65.554, 1784.797 63.238, 1795.750 58.420 C 1801.200 56.022, 1801.821 55.221, 1799.800 53.200 C 1798.246 51.646, 1799.194 51.486, 1779.500 56.617 M 665.500 70.653 C 647.871 77.093, 633.504 81, 627.450 81 C 625.067 81, 622.864 81.412, 622.553 81.915 C 621.557 83.525, 628.822 87.267, 631.792 86.673 C 639.335 85.163, 673.626 73.693, 684.990 68.879 C 687.406 67.856, 687.422 67.782, 685.549 66.412 C 682.822 64.418, 682.211 64.548, 665.500 70.653 M 831 65.925 C 828.458 67.388, 796.539 77.896, 789.833 79.477 C 786.350 80.299, 781.587 80.977, 779.250 80.985 C 774.197 81.003, 773.899 82.080, 778.114 85.081 C 782.308 88.068, 784.481 87.846, 798.767 82.979 C 805.513 80.680, 811.701 79.055, 812.517 79.368 C 813.690 79.818, 814 82.013, 814 89.871 L 814 99.804 816.875 100.807 L 819.751 101.809 820.258 90.655 C 820.668 81.625, 820.486 79.277, 819.303 78.332 C 818.093 77.364, 818.588 76.833, 822.190 75.240 C 824.581 74.182, 829.567 72.309, 833.269 71.077 C 839.792 68.906, 841.709 66.870, 838.418 65.607 C 836.202 64.756, 832.774 64.903, 831 65.925 M 981 65.925 C 978.458 67.388, 946.539 77.896, 939.833 79.477 C 936.350 80.299, 931.550 80.977, 929.167 80.985 C 923.771 81.004, 924.001 82.584, 929.873 85.852 L 934.098 88.204 938.799 86.211 C 941.385 85.115, 947.473 83.019, 952.330 81.553 C 963.786 78.094, 964 78.261, 964 90.647 C 964 99.820, 964.063 100.073, 966.565 101.025 C 970.117 102.375, 970 102.491, 970 97.637 L 970 93.274 977.382 92.084 C 985.767 90.731, 989.247 88.892, 987.250 86.867 C 986.047 85.647, 981.114 86.225, 972.253 88.623 C 970.102 89.206, 970.033 89.037, 970.637 84.630 C 971.061 81.535, 970.850 79.524, 969.992 78.490 C 969.289 77.644, 968.892 76.817, 969.107 76.652 C 969.978 75.986, 979.826 72.140, 984.750 70.543 C 989.942 68.858, 991.484 66.783, 988.418 65.607 C 986.202 64.756, 982.774 64.903, 981 65.925 M 1134 65.925 C 1131.458 67.388, 1099.539 77.896, 1092.833 79.477 C 1089.350 80.299, 1084.550 80.977, 1082.167 80.985 C 1076.771 81.004, 1077.001 82.584, 1082.873 85.852 L 1087.098 88.204 1091.799 86.211 C 1094.385 85.115, 1100.473 83.019, 1105.330 81.553 C 1116.786 78.094, 1117 78.261, 1117 90.647 C 1117 99.820, 1117.063 100.073, 1119.565 101.025 C 1123.117 102.375, 1123 102.491, 1123 97.638 L 1123 93.275 1128.502 92.629 C 1134.497 91.924, 1142 89.301, 1142 87.910 C 1142 85.550, 1131.254 86.048, 1124.255 88.733 C 1123.319 89.092, 1123.166 88.068, 1123.639 84.619 C 1124.061 81.535, 1123.849 79.523, 1122.992 78.490 C 1122.289 77.644, 1121.892 76.817, 1122.107 76.652 C 1122.978 75.986, 1132.826 72.140, 1137.750 70.543 C 1142.942 68.858, 1144.484 66.783, 1141.418 65.607 C 1139.202 64.756, 1135.774 64.903, 1134 65.925 M 1287 65.925 C 1284.458 67.388, 1252.539 77.896, 1245.833 79.477 C 1242.350 80.299, 1237.550 80.977, 1235.167 80.985 C 1229.771 81.004, 1230.001 82.584, 1235.873 85.852 L 1240.098 88.204 1244.799 86.211 C 1247.385 85.115, 1253.473 83.019, 1258.330 81.553 C 1269.792 78.092, 1270 78.255, 1270 90.690 C 1270 101.197, 1270.444 100.761, 1262.750 97.812 C 1259.724 96.652, 1259.423 95.977, 1261.158 94.242 C 1262.597 92.803, 1260.916 90.525, 1256.872 88.434 C 1252.840 86.349, 1252.318 86.591, 1251.753 90.806 C 1250.911 97.081, 1246.461 105.030, 1239.049 113.500 C 1235.199 117.900, 1232.037 121.849, 1232.024 122.276 C 1231.936 125.101, 1245.920 113.757, 1252.748 105.463 C 1255.221 102.458, 1257.432 100, 1257.660 100 C 1260.245 100, 1279.423 108.795, 1291.526 115.531 C 1311.032 126.386, 1322.652 131.826, 1329.268 133.200 C 1333.731 134.126, 1335.708 133.971, 1342.719 132.144 C 1351.349 129.895, 1362.669 125.336, 1361.794 124.461 C 1361.512 124.179, 1353.831 123.501, 1344.725 122.955 C 1322.123 121.598, 1311.519 118.653, 1285.250 106.438 L 1276 102.137 1276 97.790 L 1276 93.443 1282.992 92.342 C 1286.837 91.736, 1291.209 90.438, 1292.707 89.456 L 1295.431 87.672 1293.143 86.651 C 1291.038 85.711, 1282.180 86.843, 1277.461 88.653 C 1276.270 89.110, 1276.122 88.386, 1276.639 84.619 C 1277.061 81.535, 1276.849 79.523, 1275.992 78.490 C 1275.289 77.644, 1274.892 76.817, 1275.107 76.652 C 1275.978 75.986, 1285.826 72.140, 1290.750 70.543 C 1295.942 68.858, 1297.484 66.783, 1294.418 65.607 C 1292.202 64.756, 1288.774 64.903, 1287 65.925 M 1440 65.925 C 1437.458 67.388, 1405.539 77.896, 1398.833 79.477 C 1395.350 80.299, 1390.550 80.977, 1388.167 80.985 C 1382.771 81.004, 1383.001 82.584, 1388.873 85.852 L 1393.098 88.204 1397.799 86.211 C 1400.385 85.115, 1406.473 83.019, 1411.330 81.553 C 1422.773 78.098, 1423 78.273, 1423 90.553 L 1423 99.860 1420.139 99.040 C 1414.677 97.473, 1412.747 96.010, 1414.058 94.430 C 1415.506 92.685, 1414.046 90.592, 1409.872 88.434 C 1405.811 86.334, 1405.319 86.585, 1404.718 91.062 C 1403.873 97.369, 1399.697 104.765, 1392.051 113.500 C 1388.200 117.900, 1385.037 121.849, 1385.024 122.276 C 1384.937 125.082, 1398.908 113.771, 1405.662 105.566 C 1409.187 101.286, 1410.520 100.317, 1412.287 100.752 C 1417.209 101.965, 1434.459 110.101, 1448.064 117.626 C 1456.004 122.017, 1466.325 127.374, 1471 129.529 C 1478.593 133.030, 1480.301 133.440, 1487 133.371 C 1492.687 133.312, 1496.663 132.536, 1503.450 130.161 C 1508.372 128.438, 1513.042 126.387, 1513.826 125.602 C 1515.432 123.996, 1515.115 123.947, 1491.500 122.117 C 1484.350 121.564, 1475.800 120.390, 1472.500 119.509 C 1466.045 117.787, 1448.006 110.774, 1436.250 105.417 L 1429 102.114 1429 97.778 L 1429 93.443 1435.992 92.342 C 1439.837 91.736, 1444.209 90.438, 1445.707 89.456 L 1448.431 87.672 1446.143 86.651 C 1444.038 85.711, 1435.180 86.843, 1430.461 88.653 C 1429.270 89.110, 1429.122 88.386, 1429.639 84.619 C 1430.061 81.535, 1429.849 79.523, 1428.992 78.490 C 1428.289 77.644, 1427.892 76.817, 1428.107 76.652 C 1428.978 75.986, 1438.826 72.140, 1443.750 70.543 C 1448.942 68.858, 1450.484 66.783, 1447.418 65.607 C 1445.202 64.756, 1441.774 64.903, 1440 65.925 M 1593 65.925 C 1590.458 67.388, 1558.539 77.896, 1551.833 79.477 C 1548.350 80.299, 1543.588 80.977, 1541.250 80.985 C 1536.197 81.003, 1535.899 82.080, 1540.114 85.081 C 1544.308 88.068, 1546.481 87.847, 1560.774 82.976 C 1576.098 77.755, 1576 77.706, 1576 90.553 L 1576 99.860 1573.139 99.040 C 1567.677 97.473, 1565.747 96.010, 1567.058 94.430 C 1568.506 92.685, 1567.046 90.592, 1562.872 88.434 C 1558.811 86.334, 1558.319 86.585, 1557.718 91.062 C 1556.873 97.369, 1552.697 104.765, 1545.051 113.500 C 1541.200 117.900, 1538.037 121.849, 1538.024 122.276 C 1537.937 125.082, 1551.908 113.771, 1558.662 105.566 C 1562.187 101.286, 1563.520 100.317, 1565.287 100.752 C 1570.209 101.965, 1587.459 110.101, 1601.064 117.626 C 1609.004 122.017, 1619.325 127.371, 1624 129.523 C 1635.324 134.737, 1643.152 134.899, 1656.450 130.195 C 1661.372 128.453, 1666.042 126.387, 1666.826 125.602 C 1668.432 123.996, 1668.115 123.947, 1644.500 122.117 C 1637.350 121.564, 1628.800 120.390, 1625.500 119.509 C 1618.924 117.754, 1601.899 111.123, 1589.750 105.584 L 1582 102.050 1582 97.747 L 1582 93.443 1588.992 92.342 C 1592.837 91.736, 1597.209 90.438, 1598.707 89.456 L 1601.431 87.672 1599.143 86.651 C 1597.038 85.711, 1588.180 86.843, 1583.461 88.653 C 1582.270 89.110, 1582.122 88.386, 1582.639 84.619 C 1583.061 81.535, 1582.849 79.523, 1581.992 78.490 C 1581.289 77.644, 1580.892 76.817, 1581.107 76.652 C 1581.978 75.986, 1591.826 72.140, 1596.750 70.543 C 1601.942 68.858, 1603.484 66.783, 1600.418 65.607 C 1598.202 64.756, 1594.774 64.903, 1593 65.925 M 1746 65.925 C 1743.458 67.388, 1711.539 77.896, 1704.833 79.477 C 1701.350 80.299, 1696.550 80.977, 1694.167 80.985 C 1688.771 81.004, 1689.001 82.584, 1694.873 85.852 L 1699.098 88.204 1703.799 86.211 C 1706.385 85.115, 1712.473 83.019, 1717.330 81.553 C 1728.773 78.098, 1729 78.273, 1729 90.553 L 1729 99.860 1726.139 99.040 C 1720.677 97.473, 1718.747 96.010, 1720.058 94.430 C 1721.506 92.685, 1720.046 90.592, 1715.872 88.434 C 1711.811 86.334, 1711.319 86.585, 1710.718 91.062 C 1709.873 97.369, 1705.697 104.765, 1698.051 113.500 C 1694.200 117.900, 1691.037 121.852, 1691.024 122.282 C 1690.939 125.023, 1705.319 113.326, 1711.861 105.333 C 1715.740 100.593, 1716.328 100.234, 1718.964 100.990 C 1724.294 102.518, 1740.642 110.053, 1748.599 114.648 C 1760.632 121.597, 1778.874 130.612, 1784.808 132.542 C 1788.416 133.715, 1791.777 134.090, 1795.308 133.713 C 1801.428 133.059, 1817.778 127.651, 1819.826 125.602 C 1821.424 124.005, 1821.584 124.030, 1797.500 122.100 C 1790.350 121.527, 1781.800 120.349, 1778.500 119.483 C 1772.089 117.800, 1754.148 110.839, 1742.250 105.417 L 1735 102.114 1735 97.778 L 1735 93.443 1741.992 92.342 C 1745.837 91.736, 1750.209 90.438, 1751.707 89.456 L 1754.431 87.672 1752.143 86.651 C 1750.038 85.711, 1741.180 86.843, 1736.461 88.653 C 1735.270 89.110, 1735.122 88.386, 1735.639 84.619 C 1736.061 81.535, 1735.849 79.523, 1734.992 78.490 C 1734.289 77.644, 1733.892 76.817, 1734.107 76.652 C 1734.978 75.986, 1744.826 72.140, 1749.750 70.543 C 1754.942 68.858, 1756.484 66.783, 1753.418 65.607 C 1751.202 64.756, 1747.774 64.903, 1746 65.925 M 1798 66.019 C 1794.572 68.278, 1766.278 74.977, 1760.002 75.015 C 1758.626 75.024, 1756.878 75.424, 1756.118 75.906 C 1755.034 76.593, 1755.311 77.158, 1757.407 78.531 C 1759.785 80.089, 1760.865 80.152, 1767.288 79.106 C 1771.255 78.461, 1778.100 76.854, 1782.500 75.535 C 1794.664 71.890, 1797.413 71.556, 1799.346 73.489 C 1801.646 75.789, 1801.587 86.318, 1799.248 91 C 1797.688 94.124, 1796.983 94.554, 1792.684 95 L 1787.868 95.500 1792.434 99.840 C 1794.945 102.227, 1797 104.815, 1797 105.590 C 1797 110.322, 1805.291 102.489, 1806.871 96.263 C 1807.397 94.193, 1808.139 88.900, 1808.520 84.500 C 1808.901 80.100, 1809.897 75.176, 1810.732 73.557 C 1812.205 70.703, 1812.155 70.528, 1809.110 67.807 C 1805.840 64.885, 1800.921 64.094, 1798 66.019 M 1896 65.925 C 1893.458 67.388, 1861.539 77.896, 1854.833 79.477 C 1851.350 80.299, 1846.588 80.977, 1844.250 80.985 C 1839.197 81.003, 1838.899 82.080, 1843.114 85.081 C 1847.308 88.068, 1849.481 87.847, 1863.774 82.976 C 1879.098 77.755, 1879 77.706, 1879 90.553 L 1879 99.860 1876.139 99.040 C 1870.677 97.473, 1868.747 96.010, 1870.058 94.430 C 1871.506 92.685, 1870.046 90.592, 1865.872 88.434 C 1861.840 86.349, 1861.318 86.591, 1860.753 90.806 C 1859.911 97.081, 1855.461 105.030, 1848.049 113.500 C 1844.199 117.900, 1841.037 121.849, 1841.024 122.276 C 1840.937 125.082, 1854.908 113.771, 1861.662 105.566 C 1865.187 101.286, 1866.520 100.317, 1868.287 100.752 C 1873.209 101.965, 1890.459 110.101, 1904.064 117.626 C 1912.004 122.017, 1922.325 127.374, 1927 129.529 C 1934.593 133.030, 1936.301 133.440, 1943 133.371 C 1948.687 133.312, 1952.663 132.536, 1959.450 130.161 C 1964.372 128.438, 1969.042 126.387, 1969.826 125.602 C 1971.432 123.996, 1971.115 123.947, 1947.500 122.117 C 1940.350 121.564, 1931.800 120.390, 1928.500 119.509 C 1922.045 117.787, 1904.006 110.774, 1892.250 105.417 L 1885 102.114 1885 97.778 L 1885 93.443 1891.992 92.342 C 1895.837 91.736, 1900.209 90.438, 1901.707 89.456 L 1904.431 87.672 1902.143 86.651 C 1900.038 85.711, 1891.180 86.843, 1886.461 88.653 C 1885.270 89.110, 1885.122 88.386, 1885.639 84.619 C 1886.061 81.535, 1885.849 79.523, 1884.992 78.490 C 1884.289 77.644, 1883.892 76.817, 1884.107 76.652 C 1884.978 75.986, 1894.826 72.140, 1899.750 70.543 C 1904.942 68.858, 1906.484 66.783, 1903.418 65.607 C 1901.202 64.756, 1897.774 64.903, 1896 65.925 M 2049 65.925 C 2046.458 67.388, 2014.539 77.896, 2007.833 79.477 C 2004.350 80.299, 1999.588 80.977, 1997.250 80.985 C 1992.197 81.003, 1991.899 82.080, 1996.114 85.081 C 2000.308 88.068, 2002.481 87.847, 2016.774 82.976 C 2032.098 77.755, 2032 77.706, 2032 90.553 L 2032 99.860 2029.139 99.040 C 2023.677 97.473, 2021.747 96.010, 2023.058 94.430 C 2024.506 92.685, 2023.046 90.592, 2018.872 88.434 C 2014.811 86.334, 2014.319 86.585, 2013.718 91.062 C 2012.873 97.369, 2008.697 104.765, 2001.051 113.500 C 1997.200 117.900, 1994.037 121.849, 1994.024 122.276 C 1993.937 125.082, 2007.908 113.771, 2014.662 105.566 C 2018.187 101.286, 2019.520 100.317, 2021.287 100.752 C 2026.193 101.961, 2043.446 110.093, 2057.064 117.615 C 2065.004 122, 2075.325 127.369, 2080 129.544 C 2087.609 133.086, 2089.286 133.493, 2096 133.430 C 2101.743 133.377, 2105.597 132.619, 2112.450 130.195 C 2117.372 128.453, 2122.042 126.387, 2122.826 125.602 C 2124.432 123.996, 2124.115 123.947, 2100.500 122.117 C 2093.350 121.564, 2084.800 120.390, 2081.500 119.509 C 2074.924 117.754, 2057.899 111.123, 2045.750 105.584 L 2038 102.050 2038 97.747 L 2038 93.443 2044.992 92.342 C 2048.837 91.736, 2053.209 90.438, 2054.707 89.456 L 2057.431 87.672 2055.143 86.651 C 2053.038 85.711, 2044.180 86.843, 2039.461 88.653 C 2038.270 89.110, 2038.122 88.386, 2038.639 84.619 C 2039.061 81.535, 2038.849 79.523, 2037.992 78.490 C 2037.289 77.644, 2036.892 76.817, 2037.107 76.652 C 2037.978 75.986, 2047.826 72.140, 2052.750 70.543 C 2057.942 68.858, 2059.484 66.783, 2056.418 65.607 C 2054.202 64.756, 2050.774 64.903, 2049 65.925 M 1099.558 87.775 C 1099.251 88.082, 1099 89.496, 1098.999 90.917 C 1098.998 95.447, 1093.385 105.568, 1086.490 113.474 C 1082.814 117.690, 1080.053 121.387, 1080.356 121.689 C 1081.178 122.511, 1089.862 115.814, 1095.096 110.322 C 1097.624 107.670, 1101.866 102.618, 1104.523 99.097 L 1109.353 92.693 1106.498 90.416 C 1103.459 87.993, 1100.475 86.858, 1099.558 87.775 " stroke="none" fill="black" fill-rule="evenodd"/>
</svg>